<?xml version="1.0" encoding="UTF-8" standalone="no"?>
<!DOCTYPE svg PUBLIC "-//W3C//DTD SVG 1.1//EN"
 "http://www.w3.org/Graphics/SVG/1.1/DTD/svg11.dtd">
<!-- Generated by graphviz version 2.36.0 (20140111.2315)
 -->
<!-- Title: G Pages: 1 -->
<svg width="614pt" height="268pt"
 viewBox="0.00 0.00 614.00 267.85" xmlns="http://www.w3.org/2000/svg" xmlns:xlink="http://www.w3.org/1999/xlink">
<g id="graph0" class="graph" transform="scale(1 1) rotate(0) translate(4 263.847)">
<title>G</title>
<polygon fill="white" stroke="none" points="-4,4 -4,-263.847 610,-263.847 610,4 -4,4"/>
<!-- connecting -->
<g id="node1" class="node"><title>connecting</title>
<ellipse fill="none" stroke="black" cx="50" cy="-131.847" rx="49.2915" ry="18"/>
<text text-anchor="middle" x="50" y="-128.147" font-family="Times,serif" font-size="14.00">connecting</text>
</g>
<!-- connected -->
<g id="node2" class="node"><title>connected</title>
<ellipse fill="none" stroke="black" cx="381" cy="-217.847" rx="46.2923" ry="18"/>
<text text-anchor="middle" x="381" y="-214.147" font-family="Times,serif" font-size="14.00">connected</text>
</g>
<!-- connecting&#45;&gt;connected -->
<g id="edge1" class="edge"><title>connecting&#45;&gt;connected</title>
<path fill="none" stroke="black" d="M57.9543,-149.7C67.6472,-171.78 87.5341,-208.345 118,-223.847 186.905,-258.907 279.77,-244.78 334.428,-231.317"/>
<polygon fill="black" stroke="black" points="335.355,-234.692 344.175,-228.822 333.62,-227.911 335.355,-234.692"/>
<text text-anchor="middle" x="198" y="-248.647" font-family="Times,serif" font-size="14.00">Successful connection</text>
</g>
<!-- read_only -->
<g id="node3" class="node"><title>read_only</title>
<ellipse fill="none" stroke="black" cx="381" cy="-163.847" rx="46.2923" ry="18"/>
<text text-anchor="middle" x="381" y="-160.147" font-family="Times,serif" font-size="14.00">read_only</text>
</g>
<!-- connecting&#45;&gt;read_only -->
<g id="edge2" class="edge"><title>connecting&#45;&gt;read_only</title>
<path fill="none" stroke="black" d="M90.1028,-142.387C99.2013,-144.504 108.892,-146.492 118,-147.847 188.781,-158.378 271.309,-162.01 324.54,-163.244"/>
<polygon fill="black" stroke="black" points="324.711,-166.748 334.783,-163.46 324.859,-159.75 324.711,-166.748"/>
<text text-anchor="middle" x="198" y="-164.647" font-family="Times,serif" font-size="14.00">Connection to read&#45;only peer</text>
</g>
<!-- authentication_failed -->
<g id="node4" class="node"><title>authentication_failed</title>
<ellipse fill="none" stroke="black" cx="381" cy="-109.847" rx="85.2851" ry="18"/>
<text text-anchor="middle" x="381" y="-106.147" font-family="Times,serif" font-size="14.00">authentication_failed</text>
</g>
<!-- connecting&#45;&gt;authentication_failed -->
<g id="edge3" class="edge"><title>connecting&#45;&gt;authentication_failed</title>
<path fill="none" stroke="black" d="M73.3438,-115.76C85.8266,-107.769 102.045,-98.9596 118,-94.8468 182.658,-78.1798 259.151,-85.5118 312.738,-94.8273"/>
<polygon fill="black" stroke="black" points="312.341,-98.3122 322.804,-96.6472 313.586,-91.4239 312.341,-98.3122"/>
<text text-anchor="middle" x="198" y="-98.6468" font-family="Times,serif" font-size="14.00">Authentication failure</text>
</g>
<!-- expired_session -->
<g id="node5" class="node"><title>expired_session</title>
<ellipse fill="none" stroke="black" cx="381" cy="-55.8468" rx="66.8882" ry="18"/>
<text text-anchor="middle" x="381" y="-52.1468" font-family="Times,serif" font-size="14.00">expired_session</text>
</g>
<!-- connecting&#45;&gt;expired_session -->
<g id="edge4" class="edge"><title>connecting&#45;&gt;expired_session</title>
<path fill="none" stroke="black" d="M62.7531,-114.433C74.6012,-98.5373 94.4698,-76.0183 118,-65.8468 180.247,-38.9392 258.774,-39.9625 313.552,-45.5206"/>
<polygon fill="black" stroke="black" points="313.174,-49.0001 323.495,-46.6055 313.934,-42.0414 313.174,-49.0001"/>
<text text-anchor="middle" x="198" y="-69.6468" font-family="Times,serif" font-size="14.00">Session lost</text>
</g>
<!-- closed -->
<g id="node6" class="node"><title>closed</title>
<ellipse fill="none" stroke="black" cx="573" cy="-109.847" rx="33.2948" ry="18"/>
<text text-anchor="middle" x="573" y="-106.147" font-family="Times,serif" font-size="14.00">closed</text>
</g>
<!-- connecting&#45;&gt;closed -->
<g id="edge5" class="edge"><title>connecting&#45;&gt;closed</title>
<path fill="none" stroke="black" d="M58.3735,-113.877C68.3855,-91.9641 88.4844,-55.6513 118,-37.8468 186.354,3.38591 216.352,-19.1921 296,-13.8468 371.386,-8.78746 395.502,13.332 466,-13.8468 502.726,-28.0055 534.615,-61.443 553.575,-84.8523"/>
<polygon fill="black" stroke="black" points="551.026,-87.2732 559.959,-92.9688 556.527,-82.9452 551.026,-87.2732"/>
<text text-anchor="middle" x="381" y="-17.6468" font-family="Times,serif" font-size="14.00">close()</text>
</g>
<!-- connected&#45;&gt;connecting -->
<g id="edge6" class="edge"><title>connected&#45;&gt;connecting</title>
<path fill="none" stroke="red" d="M337.056,-212.158C265.349,-202.583 128.046,-183.892 118,-179.847 103.367,-173.954 88.9126,-164.235 77.196,-155.078"/>
<polygon fill="red" stroke="red" points="79.1541,-152.16 69.185,-148.573 74.7413,-157.594 79.1541,-152.16"/>
<text text-anchor="middle" x="198" y="-207.647" font-family="Times,serif" font-size="14.00">Connection lost</text>
</g>
<!-- connected&#45;&gt;closed -->
<g id="edge7" class="edge"><title>connected&#45;&gt;closed</title>
<path fill="none" stroke="black" d="M419.508,-207.847C434.289,-203.379 451.23,-197.591 466,-190.847 492.487,-178.753 498.822,-174.47 522,-156.847 531.439,-149.67 541.097,-140.969 549.376,-133.014"/>
<polygon fill="black" stroke="black" points="551.856,-135.484 556.546,-125.984 546.955,-130.486 551.856,-135.484"/>
<text text-anchor="middle" x="503" y="-185.647" font-family="Times,serif" font-size="14.00">close()</text>
</g>
<!-- read_only&#45;&gt;connecting -->
<g id="edge8" class="edge"><title>read_only&#45;&gt;connecting</title>
<path fill="none" stroke="red" d="M343.734,-153.124C328.821,-148.473 311.456,-142.746 296,-136.847 287.821,-133.725 286.564,-130.664 278,-128.847 208.438,-114.085 189.093,-127.256 118,-128.847 115.163,-128.91 112.258,-128.989 109.325,-129.079"/>
<polygon fill="red" stroke="red" points="109.171,-125.582 99.2984,-129.426 109.413,-132.578 109.171,-125.582"/>
<text text-anchor="middle" x="198" y="-132.647" font-family="Times,serif" font-size="14.00">Connection lost</text>
</g>
<!-- read_only&#45;&gt;closed -->
<g id="edge9" class="edge"><title>read_only&#45;&gt;closed</title>
<path fill="none" stroke="black" d="M421.571,-155.269C449.801,-148.831 488.534,-139.348 522,-128.847 526.682,-127.378 531.562,-125.705 536.358,-123.976"/>
<polygon fill="black" stroke="black" points="537.84,-127.159 545.995,-120.395 535.402,-120.598 537.84,-127.159"/>
<text text-anchor="middle" x="503" y="-141.647" font-family="Times,serif" font-size="14.00">close()</text>
</g>
<!-- authentication_failed&#45;&gt;closed -->
<g id="edge10" class="edge"><title>authentication_failed&#45;&gt;closed</title>
<path fill="none" stroke="black" d="M466.167,-109.847C488.008,-109.847 510.623,-109.847 529.313,-109.847"/>
<polygon fill="black" stroke="black" points="529.544,-113.347 539.544,-109.847 529.544,-106.347 529.544,-113.347"/>
<text text-anchor="middle" x="503" y="-113.647" font-family="Times,serif" font-size="14.00">close()</text>
</g>
<!-- expired_session&#45;&gt;closed -->
<g id="edge11" class="edge"><title>expired_session&#45;&gt;closed</title>
<path fill="none" stroke="black" d="M433.276,-67.1315C459.946,-73.3863 492.956,-81.733 522,-90.8468 526.682,-92.316 531.562,-93.9882 536.358,-95.7171"/>
<polygon fill="black" stroke="black" points="535.402,-99.0957 545.995,-99.2983 537.84,-92.5341 535.402,-99.0957"/>
<text text-anchor="middle" x="503" y="-94.6468" font-family="Times,serif" font-size="14.00">close()</text>
</g>
</g>
</svg>
